# Blender v2.79 (sub 0) OBJ File: ''
# www.blender.org
mtllib Bear.mtl
o Cube_Cube.001
v -0.400000 0.332856 0.080000
v -0.400000 0.027206 -0.080000
v -0.400000 0.027206 0.080000
v -0.400000 0.332856 -0.080000
v 0.400000 0.027206 -0.080000
v 0.400000 0.332856 -0.080000
v 0.400000 0.027206 0.080000
v 0.400000 0.332856 0.080000
v -0.400000 0.029906 0.500000
v -0.400000 -0.010094 -0.500000
v -0.400000 -0.010094 0.500000
v -0.400000 0.029906 -0.500000
v 0.400000 -0.010094 -0.500000
v 0.400000 0.029906 -0.500000
v 0.400000 -0.010094 0.500000
v 0.400000 0.029906 0.500000
vt 0.102288 0.605200
vt 0.075796 0.618659
vt 0.075840 0.605116
vt 0.090012 0.483622
vt 0.020870 0.457528
vt 0.090094 0.457749
vt 0.040185 0.619067
vt 0.066676 0.605608
vt 0.066633 0.619152
vt 0.093030 0.523447
vt 0.023887 0.497353
vt 0.093112 0.497574
vt 0.095583 0.559361
vt 0.026315 0.572684
vt 0.026359 0.559140
vt 0.026849 0.549210
vt 0.096117 0.535887
vt 0.096074 0.549431
vt 0.103280 0.585592
vt 0.016760 0.581930
vt 0.103291 0.582206
vt 0.026819 0.644876
vt 0.096033 0.648483
vt 0.026808 0.648262
vt 0.101719 0.596729
vt 0.015199 0.593067
vt 0.101730 0.593343
vt 0.096022 0.637917
vt 0.026808 0.634311
vt 0.096033 0.634531
vt 0.010911 0.290596
vt 0.097226 0.358592
vt 0.010695 0.358316
vt 0.011127 0.375219
vt 0.097442 0.443215
vt 0.010911 0.442939
vt 0.102245 0.618744
vt 0.020787 0.483401
vt 0.040228 0.605523
vt 0.023805 0.523226
vt 0.095540 0.572905
vt 0.026892 0.535666
vt 0.016749 0.585316
vt 0.096044 0.645097
vt 0.015188 0.596453
vt 0.026797 0.637697
vt 0.097442 0.290872
vt 0.097658 0.375495
vn -1.0000 -0.0000 0.0000
vn 0.0000 0.0000 -1.0000
vn 1.0000 -0.0000 0.0000
vn 0.0000 -0.0000 1.0000
vn 0.0000 -1.0000 -0.0000
vn 0.0000 1.0000 0.0000
usemtl None
s 1
f 1/1/1 2/2/1 3/3/1
f 4/4/2 5/5/2 2/6/2
f 6/7/3 7/8/3 5/9/3
f 8/10/4 3/11/4 7/12/4
f 5/13/5 3/14/5 2/15/5
f 4/16/6 8/17/6 6/18/6
f 9/19/1 10/20/1 11/21/1
f 12/22/2 13/23/2 10/24/2
f 14/25/3 15/26/3 13/27/3
f 16/28/4 11/29/4 15/30/4
f 13/31/5 11/32/5 10/33/5
f 12/34/6 16/35/6 14/36/6
f 1/1/1 4/37/1 2/2/1
f 4/4/2 6/38/2 5/5/2
f 6/7/3 8/39/3 7/8/3
f 8/10/4 1/40/4 3/11/4
f 5/13/5 7/41/5 3/14/5
f 4/16/6 1/42/6 8/17/6
f 9/19/1 12/43/1 10/20/1
f 12/22/2 14/44/2 13/23/2
f 14/25/3 16/45/3 15/26/3
f 16/28/4 9/46/4 11/29/4
f 13/31/5 15/47/5 11/32/5
f 12/34/6 9/48/6 16/35/6
o Circle
v -0.113719 2.421531 -0.040066
v -0.291804 2.371492 -0.040066
v -0.452282 2.290731 -0.040066
v -0.609194 2.193117 -0.040066
v -0.731358 2.094042 -0.040066
v -0.882503 1.933172 -0.040066
v -0.930188 1.805541 -0.040066
v -0.934303 1.510125 -0.040066
v -0.878768 1.329112 -0.040066
v -0.805806 1.202354 -0.040066
v -0.736014 0.995458 -0.040066
v -0.665485 0.807861 -0.040066
v -0.611427 0.624148 -0.040066
v -0.583494 0.450829 -0.040066
v -0.600768 0.290394 -0.040066
v -0.588776 0.246755 -0.040066
v -0.559177 0.216704 -0.040066
v 0.501259 0.215345 -0.040066
v 0.530384 0.238995 -0.040066
v 0.544521 0.268078 -0.040066
v 0.575309 0.418552 -0.040066
v 0.649355 0.733619 -0.040066
v 0.674196 0.964049 -0.040066
v 0.752554 1.256610 -0.040066
v 0.762696 1.700328 -0.040066
v 0.735421 1.929885 -0.040066
v 0.662773 2.076815 -0.040066
v 0.552267 2.150192 -0.040066
v 0.449666 2.225396 -0.040066
v 0.370334 2.321616 -0.040066
v 0.227700 2.424941 -0.040066
v 0.072932 2.488568 -0.040066
v -0.113719 2.421531 0.034934
v -0.291804 2.371492 0.034934
v -0.452282 2.290731 0.034934
v -0.609194 2.193117 0.034934
v -0.731358 2.094042 0.034934
v -0.882503 1.933172 0.034934
v -0.930188 1.805541 0.034934
v -0.934303 1.510125 0.034934
v -0.878768 1.329112 0.034934
v -0.805806 1.202354 0.034934
v -0.736014 0.995458 0.034934
v -0.665485 0.807861 0.034934
v -0.611427 0.624148 0.034934
v -0.583494 0.450829 0.034934
v -0.600768 0.290394 0.034934
v -0.588776 0.246755 0.034934
v -0.559177 0.216704 0.034934
v 0.501259 0.215345 0.034934
v 0.530384 0.238995 0.034934
v 0.544521 0.268078 0.034934
v 0.575309 0.418552 0.034934
v 0.649355 0.733619 0.034934
v 0.674196 0.964049 0.034934
v 0.752554 1.256610 0.034934
v 0.762696 1.700328 0.034934
v 0.735421 1.929885 0.034934
v 0.662773 2.076815 0.034934
v 0.552267 2.150192 0.034934
v 0.449666 2.225396 0.034934
v 0.370334 2.321616 0.034934
v 0.227700 2.424941 0.034934
v 0.072932 2.488568 0.034934
vt 0.336788 0.267837
vt 0.895781 0.336500
vt 0.359399 0.187982
vt 0.823834 0.010839
vt 0.854675 0.099243
vt 0.371106 0.112632
vt 0.963819 0.854077
vt 0.958771 0.852147
vt 0.963819 0.852147
vt 0.973915 0.858337
vt 0.968867 0.856244
vt 0.973915 0.856244
vt 0.963819 0.855899
vt 0.958771 0.854077
vt 0.973915 0.859639
vt 0.968867 0.858337
vt 0.963819 0.857516
vt 0.958771 0.855899
vt 0.957665 0.846465
vt 0.958771 0.841417
vt 0.958771 0.846465
vt 0.963819 0.858818
vt 0.958771 0.857516
vt 0.963819 0.851910
vt 0.968867 0.854168
vt 0.963819 0.854168
vt 0.956658 0.846465
vt 0.957665 0.841417
vt 0.963819 0.859248
vt 0.958771 0.858818
vt 0.963819 0.849773
vt 0.968867 0.851910
vt 0.955828 0.846465
vt 0.956658 0.841417
vt 0.963819 0.859639
vt 0.958771 0.859248
vt 0.963819 0.847632
vt 0.968867 0.849773
vt 0.963819 0.858236
vt 0.968867 0.859639
vt 0.963819 0.859639
vt 0.953722 0.846874
vt 0.958771 0.859639
vt 0.953722 0.859639
vt 0.963819 0.845899
vt 0.968867 0.847632
vt 0.963819 0.856577
vt 0.968867 0.858236
vt 0.953722 0.846465
vt 0.958771 0.846874
vt 0.963819 0.843646
vt 0.968867 0.845899
vt 0.968867 0.856577
vt 0.973915 0.842912
vt 0.968867 0.842634
vt 0.973915 0.842634
vt 0.963819 0.842718
vt 0.968867 0.843646
vt 0.973915 0.844318
vt 0.968867 0.842912
vt 0.963819 0.846830
vt 0.958771 0.844307
vt 0.963819 0.844307
vt 0.973915 0.847269
vt 0.968867 0.844318
vt 0.963819 0.848636
vt 0.958771 0.846830
vt 0.973915 0.849407
vt 0.968867 0.847269
vt 0.963819 0.850054
vt 0.958771 0.848636
vt 0.973915 0.852153
vt 0.968867 0.849407
vt 0.958771 0.850054
vt 0.968867 0.852153
vt 0.425324 0.912763
vt 0.492266 0.947970
vt 0.307302 0.349372
vt 0.566566 0.969828
vt 0.644434 0.999082
vt 0.709036 0.971501
vt 0.768586 0.926651
vt 0.801719 0.884855
vt 0.844556 0.852211
vt 0.890690 0.820365
vt 0.921049 0.756515
vt 0.932497 0.656711
vt 0.928394 0.463760
vt 0.885482 0.236287
vt 0.854675 0.099243
vt 0.359874 0.870229
vt 0.278118 0.439299
vt 0.245900 0.757043
vt 0.308924 0.827079
vt 0.226038 0.701517
vt 0.224407 0.573057
vt 0.247634 0.494377
vt 0.841871 0.033794
vt 0.823834 0.010839
vt 0.835981 0.021140
vt 0.381321 0.010839
vt 0.371106 0.112632
vt 0.368961 0.023890
vt 0.363944 0.042859
vt 0.566566 0.969828
vt 0.492266 0.947970
vt 0.307302 0.349372
vt 0.425324 0.912763
vt 0.278118 0.439299
vt 0.359874 0.870229
vt 0.308924 0.827079
vt 0.245900 0.757043
vt 0.226038 0.701517
vt 0.224407 0.573057
vt 0.247634 0.494377
vt 0.336788 0.267837
vt 0.895781 0.336500
vt 0.801719 0.884855
vt 0.928394 0.463760
vt 0.644434 0.999082
vt 0.709036 0.971501
vt 0.768586 0.926651
vt 0.359399 0.187982
vt 0.921049 0.756515
vt 0.890690 0.820365
vt 0.844556 0.852211
vt 0.932497 0.656711
vt 0.885482 0.236287
vt 0.835981 0.021140
vt 0.841871 0.033794
vt 0.381321 0.010839
vt 0.363944 0.042859
vt 0.368961 0.023890
vt 0.968867 0.859639
vt 0.955828 0.841417
vt 0.958771 0.846465
vt 0.968867 0.842718
vn 0.0000 0.0000 -1.0000
vn -0.0000 -0.0000 1.0000
vn -0.9360 -0.3519 0.0000
vn 0.9930 0.1180 0.0000
vn -0.9593 -0.2823 0.0000
vn 0.8964 0.4432 0.0000
vn -0.9873 -0.1591 0.0000
vn 0.5532 0.8331 0.0000
vn -0.9943 0.1070 0.0000
vn -0.2705 0.9627 0.0000
vn 0.5912 0.8065 0.0000
vn -0.9643 -0.2650 0.0000
vn -0.4495 0.8933 0.0000
vn 0.7716 0.6361 0.0000
vn -0.7124 -0.7017 0.0000
vn -0.5282 0.8491 0.0000
vn 0.5867 0.8098 0.0000
vn -0.0013 -1.0000 0.0000
vn -0.6299 0.7767 0.0000
vn 0.3802 0.9249 0.0000
vn 0.6304 -0.7763 0.0000
vn -0.7288 0.6847 0.0000
vn -0.3380 0.9411 0.0000
vn 0.8994 -0.4372 0.0000
vn -0.9368 0.3500 0.0000
vn 0.9797 -0.2005 0.0000
vn -0.9999 0.0139 0.0000
vn 0.9735 -0.2288 0.0000
vn -0.9560 -0.2933 0.0000
vn 0.9942 -0.1072 0.0000
vn -0.8667 -0.4989 0.0000
vn 0.9660 -0.2587 0.0000
vn -0.9475 -0.3196 0.0000
vn 0.9997 -0.0228 0.0000
usemtl None_Bear.jpg
s off
f 28/49/7 39/50/7 29/51/7
f 66/52/8 69/53/8 62/54/8
f 28/55/9 59/56/9 27/57/9
f 42/58/10 73/59/10 41/60/10
f 29/61/11 60/62/11 28/55/11
f 43/63/12 74/64/12 42/58/12
f 30/65/13 61/66/13 29/61/13
f 44/67/14 75/68/14 43/69/14
f 31/70/15 62/71/15 30/65/15
f 18/72/16 49/73/16 17/74/16
f 45/75/17 76/76/17 44/67/17
f 32/77/18 63/78/18 31/70/18
f 19/79/19 50/80/19 18/72/19
f 46/81/20 77/82/20 45/75/20
f 33/83/21 64/84/21 32/77/21
f 20/85/22 51/86/22 19/79/22
f 47/87/23 78/88/23 46/89/23
f 34/90/24 65/91/24 33/92/24
f 21/93/25 52/94/25 20/85/25
f 48/95/26 79/96/26 47/87/26
f 35/97/27 66/98/27 34/90/27
f 22/99/28 53/100/28 21/93/28
f 17/74/29 80/101/29 48/95/29
f 36/102/30 67/103/30 35/104/30
f 23/105/31 54/106/31 22/99/31
f 37/107/32 68/108/32 36/102/32
f 24/109/33 55/110/33 23/111/33
f 38/112/34 69/113/34 37/107/34
f 25/114/35 56/115/35 24/109/35
f 39/116/36 70/117/36 38/112/36
f 26/118/37 57/119/37 25/114/37
f 40/120/38 71/121/38 39/116/38
f 27/57/39 58/122/39 26/118/39
f 41/60/40 72/123/40 40/120/40
f 19/124/7 18/125/7 27/126/7
f 18/125/7 17/127/7 27/126/7
f 27/126/7 17/127/7 39/50/7
f 17/127/7 48/128/7 47/129/7
f 47/129/7 46/130/7 17/127/7
f 46/130/7 45/131/7 17/127/7
f 44/132/7 43/133/7 42/134/7
f 45/131/7 44/132/7 41/135/7
f 44/132/7 42/134/7 41/135/7
f 41/135/7 40/136/7 45/131/7
f 39/50/7 38/137/7 29/51/7
f 38/137/7 37/138/7 29/51/7
f 40/136/7 39/50/7 45/131/7
f 17/127/7 45/131/7 39/50/7
f 20/139/7 19/124/7 26/140/7
f 22/141/7 21/142/7 23/143/7
f 21/142/7 20/139/7 26/140/7
f 24/144/7 23/143/7 21/142/7
f 26/140/7 25/145/7 21/142/7
f 25/145/7 24/144/7 21/142/7
f 28/49/7 27/126/7 39/50/7
f 27/126/7 26/140/7 19/124/7
f 37/138/7 36/146/7 34/147/7
f 36/146/7 35/148/7 34/147/7
f 34/147/7 33/149/7 30/150/7
f 33/149/7 32/151/7 31/152/7
f 30/150/7 33/149/7 31/152/7
f 37/138/7 34/147/7 30/150/7
f 29/51/7 37/138/7 30/150/7
f 49/153/8 50/154/8 59/155/8
f 50/154/8 51/156/8 59/155/8
f 59/155/8 51/156/8 58/157/8
f 51/156/8 52/158/8 58/157/8
f 52/158/8 53/159/8 58/157/8
f 53/159/8 54/160/8 55/161/8
f 55/161/8 56/162/8 53/159/8
f 56/162/8 57/163/8 53/159/8
f 59/155/8 60/164/8 71/165/8
f 77/166/8 71/165/8 72/167/8
f 57/163/8 58/157/8 53/159/8
f 80/168/8 49/153/8 79/169/8
f 77/166/8 49/153/8 71/165/8
f 78/170/8 79/169/8 49/153/8
f 77/166/8 78/170/8 49/153/8
f 71/165/8 49/153/8 59/155/8
f 60/164/8 61/171/8 71/165/8
f 74/172/8 75/173/8 76/174/8
f 76/174/8 77/166/8 73/175/8
f 73/175/8 74/172/8 76/174/8
f 72/167/8 73/175/8 77/166/8
f 69/53/8 70/176/8 61/171/8
f 70/176/8 71/165/8 61/171/8
f 69/53/8 61/171/8 62/54/8
f 67/177/8 68/178/8 66/52/8
f 68/178/8 69/53/8 66/52/8
f 65/179/8 66/52/8 62/54/8
f 63/180/8 64/181/8 65/179/8
f 62/54/8 63/180/8 65/179/8
f 28/55/9 60/62/9 59/56/9
f 42/58/10 74/64/10 73/59/10
f 29/61/11 61/66/11 60/62/11
f 43/63/12 75/182/12 74/64/12
f 30/65/13 62/71/13 61/66/13
f 44/67/14 76/76/14 75/68/14
f 31/70/15 63/78/15 62/71/15
f 18/72/16 50/80/16 49/73/16
f 45/75/17 77/82/17 76/76/17
f 32/77/18 64/84/18 63/78/18
f 19/79/19 51/86/19 50/80/19
f 46/81/20 78/183/20 77/82/20
f 33/83/21 65/91/21 64/84/21
f 20/85/22 52/94/22 51/86/22
f 47/87/23 79/96/23 78/88/23
f 34/90/24 66/98/24 65/91/24
f 21/93/25 53/100/25 52/94/25
f 48/95/26 80/101/26 79/96/26
f 35/97/27 67/184/27 66/98/27
f 22/99/28 54/106/28 53/100/28
f 17/74/29 49/73/29 80/101/29
f 36/102/30 68/108/30 67/103/30
f 23/105/31 55/185/31 54/106/31
f 37/107/32 69/113/32 68/108/32
f 24/109/33 56/115/33 55/110/33
f 38/112/34 70/117/34 69/113/34
f 25/114/35 57/119/35 56/115/35
f 39/116/36 71/121/36 70/117/36
f 26/118/37 58/122/37 57/119/37
f 40/120/38 72/123/38 71/121/38
f 27/57/39 59/56/39 58/122/39
f 41/60/40 73/59/40 72/123/40
