# Blender v2.78 (sub 0) OBJ File: ''
# www.blender.org
o Cube_Cube.001
v 0.711109 -5.961109 -7.750000
v 0.750000 -5.961109 -7.711110
v 0.711109 -6.000000 -7.711110
v 0.730529 -5.961109 -7.744805
v 0.711109 -5.980528 -7.744805
v 0.729707 -5.979707 -7.739758
v 0.744805 -5.980528 -7.711110
v 0.744805 -5.961109 -7.730529
v 0.739758 -5.979707 -7.729708
v 0.711109 -5.994804 -7.730529
v 0.730529 -5.994804 -7.711110
v 0.729707 -5.989757 -7.729708
v 0.750000 -5.961110 7.711109
v 0.711109 -5.961110 7.750000
v 0.711109 -6.000000 7.711109
v 0.744805 -5.961110 7.730528
v 0.744805 -5.980529 7.711109
v 0.739758 -5.979708 7.729707
v 0.711109 -5.980529 7.744804
v 0.730529 -5.961110 7.744804
v 0.729707 -5.979708 7.739757
v 0.730529 -5.994805 7.711109
v 0.711109 -5.994805 7.730528
v 0.729707 -5.989758 7.729707
v -0.711109 -5.961109 -7.750000
v -0.711109 -6.000000 -7.711110
v -0.750000 -5.961109 -7.711110
v -0.711109 -5.980528 -7.744805
v -0.730529 -5.961109 -7.744805
v -0.729707 -5.979707 -7.739758
v -0.730529 -5.994804 -7.711110
v -0.711109 -5.994804 -7.730529
v -0.729707 -5.989757 -7.729708
v -0.744804 -5.961109 -7.730529
v -0.744804 -5.980528 -7.711110
v -0.739757 -5.979707 -7.729708
v -0.711109 -5.961110 7.750000
v -0.750000 -5.961110 7.711109
v -0.711109 -6.000000 7.711109
v -0.730529 -5.961110 7.744804
v -0.711109 -5.980529 7.744804
v -0.729707 -5.979708 7.739757
v -0.744804 -5.980529 7.711109
v -0.744804 -5.961110 7.730528
v -0.739757 -5.979708 7.729707
v -0.711109 -5.994805 7.730528
v -0.730529 -5.994805 7.711109
v -0.729707 -5.989758 7.729707
v 0.711109 5.961110 -7.750000
v 0.711109 6.000000 -7.711109
v 0.750000 5.961110 -7.711109
v 0.711109 5.980529 -7.744804
v 0.730529 5.961110 -7.744804
v 0.729707 5.979708 -7.739757
v 0.730529 5.994805 -7.711109
v 0.711109 5.994805 -7.730528
v 0.729707 5.989758 -7.729707
v 0.744804 5.961110 -7.730528
v 0.744804 5.980529 -7.711109
v 0.739757 5.979708 -7.729707
v 0.711109 5.961109 7.750000
v 0.750000 5.961109 7.711110
v 0.711109 6.000000 7.711110
v 0.730529 5.961109 7.744805
v 0.711109 5.980528 7.744805
v 0.729707 5.979707 7.739758
v 0.744804 5.980528 7.711110
v 0.744804 5.961109 7.730529
v 0.739757 5.979707 7.729708
v 0.711109 5.994804 7.730529
v 0.730529 5.994804 7.711110
v 0.729707 5.989757 7.729708
v -0.711109 5.961110 -7.750000
v -0.750000 5.961110 -7.711109
v -0.711109 6.000000 -7.711109
v -0.730529 5.961110 -7.744804
v -0.711109 5.980529 -7.744804
v -0.729707 5.979708 -7.739757
v -0.744805 5.980529 -7.711109
v -0.744805 5.961110 -7.730528
v -0.739758 5.979708 -7.729707
v -0.711109 5.994805 -7.730528
v -0.730529 5.994805 -7.711109
v -0.729707 5.989758 -7.729707
v -0.711109 5.961109 7.750000
v -0.711109 6.000000 7.711110
v -0.750000 5.961109 7.711110
v -0.711109 5.980528 7.744805
v -0.730529 5.961109 7.744805
v -0.729707 5.979707 7.739758
v -0.730529 5.994804 7.711110
v -0.711109 5.994804 7.730529
v -0.729707 5.989757 7.729708
v -0.744805 5.961109 7.730529
v -0.744805 5.980528 7.711110
v -0.739758 5.979707 7.729708
vt 0.9843 0.8081
vt 0.5593 0.2585
vt 0.9843 0.2585
vt 0.0612 0.8082
vt 0.0105 0.2585
vt 0.0612 0.2585
vt 0.0640 0.8617
vt 0.4889 0.8110
vt 0.4889 0.8617
vt 0.5424 0.8082
vt 0.4917 0.2585
vt 0.5424 0.2585
vt 0.4889 0.8082
vt 0.0640 0.2585
vt 0.4889 0.2585
vt 0.4889 0.2044
vt 0.4896 0.2051
vt 0.4889 0.2051
vt 0.4889 0.2037
vt 0.4896 0.2044
vt 0.5586 0.2585
vt 0.5593 0.2578
vt 0.5580 0.2585
vt 0.5587 0.2578
vt 0.5424 0.2579
vt 0.5431 0.2585
vt 0.5430 0.2572
vt 0.5430 0.2579
vt 0.4896 0.2037
vt 0.4903 0.2044
vt 0.5593 0.8088
vt 0.5586 0.8081
vt 0.5593 0.8081
vt 0.5593 0.8095
vt 0.5587 0.8088
vt 0.4896 0.8617
vt 0.4889 0.8624
vt 0.4903 0.8624
vt 0.4896 0.8624
vt 0.5431 0.8082
vt 0.5424 0.8089
vt 0.5438 0.8082
vt 0.5430 0.8089
vt 0.5587 0.8095
vt 0.5580 0.8088
vt 0.4896 0.2558
vt 0.4889 0.2565
vt 0.4889 0.2558
vt 0.4903 0.2558
vt 0.4896 0.2564
vt 0.4910 0.2585
vt 0.4917 0.2579
vt 0.4896 0.2579
vt 0.4910 0.2579
vt 0.4889 0.2579
vt 0.4896 0.2585
vt 0.4903 0.2564
vt 0.4896 0.2572
vt 0.4889 0.8103
vt 0.4896 0.8110
vt 0.4896 0.8089
vt 0.4896 0.8103
vt 0.4896 0.8082
vt 0.4889 0.8089
vt 0.4910 0.8089
vt 0.4917 0.8089
vt 0.4910 0.8082
vt 0.4917 0.8082
vt 0.4917 0.8096
vt 0.4896 0.8096
vt 0.4903 0.8103
vt 0.0633 0.2051
vt 0.0640 0.2044
vt 0.0640 0.2051
vt 0.0626 0.2044
vt 0.0633 0.2044
vt 0.0098 0.2585
vt 0.0105 0.2579
vt 0.0091 0.2585
vt 0.0098 0.2579
vt 0.9843 0.2578
vt 0.9850 0.2585
vt 0.9849 0.2571
vt 0.9849 0.2578
vt 0.0633 0.2037
vt 0.0640 0.8624
vt 0.0633 0.8617
vt 0.0640 0.8631
vt 0.0633 0.8624
vt 0.9850 0.8081
vt 0.9843 0.8088
vt 0.9857 0.8081
vt 0.9849 0.8088
vt 0.0105 0.8089
vt 0.0098 0.8082
vt 0.0105 0.8082
vt 0.0098 0.8096
vt 0.0098 0.8089
vt 0.0633 0.8631
vt 0.0626 0.8624
vt 0.0640 0.2565
vt 0.0633 0.2558
vt 0.0640 0.2558
vt 0.0633 0.2579
vt 0.0633 0.2564
vt 0.0633 0.2585
vt 0.0640 0.2579
vt 0.0619 0.2579
vt 0.0612 0.2579
vt 0.0619 0.2585
vt 0.0612 0.2572
vt 0.0633 0.2572
vt 0.0626 0.2564
vt 0.0633 0.8110
vt 0.0640 0.8103
vt 0.0640 0.8110
vt 0.0626 0.8110
vt 0.0633 0.8103
vt 0.0619 0.8082
vt 0.0612 0.8089
vt 0.0633 0.8089
vt 0.0619 0.8089
vt 0.0640 0.8089
vt 0.0633 0.8082
vt 0.0640 0.8082
vt 0.0626 0.8103
vt 0.0633 0.8096
vt 0.4903 0.8617
vt 0.0626 0.2051
vt 0.5580 0.2578
vt 0.5424 0.2572
vt 0.5438 0.8089
vt 0.4910 0.8096
vt 0.0091 0.2579
vt 0.9843 0.2571
vt 0.9857 0.8088
vt 0.0105 0.8096
vt 0.0619 0.2572
vt 0.4903 0.2051
vt 0.5580 0.8081
vt 0.4903 0.8110
vt 0.0626 0.2558
vt 0.0626 0.8617
vt 0.9857 0.2585
vt 0.0640 0.2037
vt 0.4889 0.8631
vn 0.9835 0.1280 0.1280
vn 0.9835 -0.1280 -0.1280
vn 0.9835 0.1280 -0.1280
vn -0.1280 0.9835 0.1280
vn 0.1280 0.9835 -0.1280
vn -0.1280 0.9835 -0.1279
vn 0.1280 0.1280 0.9835
vn -0.1280 -0.1280 0.9835
vn 0.1280 -0.1280 0.9835
vn 0.1280 -0.9835 0.1280
vn -0.1280 -0.9835 -0.1280
vn 0.1280 -0.9835 -0.1280
vn -0.9835 -0.1280 0.1280
vn -0.9835 0.1280 -0.1280
vn -0.9835 -0.1280 -0.1280
vn 0.4916 -0.1216 -0.8623
vn 0.1216 -0.4916 -0.8623
vn 0.1280 -0.1280 -0.9835
vn 0.8623 -0.1216 -0.4916
vn 0.4488 -0.4488 -0.7727
vn 0.8623 -0.4916 -0.1216
vn 0.4916 -0.8623 -0.1216
vn 0.7727 -0.4488 -0.4488
vn 0.1216 -0.8623 -0.4915
vn 0.4488 -0.7727 -0.4488
vn 0.8623 -0.1216 0.4916
vn 0.8623 -0.4916 0.1216
vn 0.9835 -0.1280 0.1280
vn 0.4916 -0.1216 0.8623
vn 0.7727 -0.4488 0.4488
vn 0.1216 -0.4916 0.8623
vn 0.4488 -0.7727 0.4488
vn 0.4488 -0.4488 0.7727
vn 0.4916 -0.8623 0.1216
vn 0.1216 -0.8623 0.4916
vn -0.1216 -0.4916 -0.8623
vn -0.4916 -0.1216 -0.8623
vn -0.1279 -0.1280 -0.9835
vn -0.1216 -0.8623 -0.4916
vn -0.4489 -0.4488 -0.7727
vn -0.4916 -0.8623 -0.1216
vn -0.7727 -0.4488 -0.4488
vn -0.4488 -0.7727 -0.4488
vn -0.8623 -0.1216 -0.4916
vn -0.8623 -0.4916 -0.1216
vn -0.4916 -0.1216 0.8623
vn -0.1216 -0.4916 0.8623
vn -0.7727 -0.4488 0.4488
vn -0.4488 -0.4488 0.7727
vn -0.8623 -0.4916 0.1216
vn -0.8623 -0.1216 0.4916
vn -0.4488 -0.7727 0.4488
vn -0.1216 -0.8623 0.4915
vn -0.4916 -0.8623 0.1216
vn -0.1280 -0.9835 0.1279
vn 0.1216 0.4916 -0.8623
vn 0.4916 0.1216 -0.8623
vn 0.1280 0.1280 -0.9835
vn 0.4488 0.7727 -0.4488
vn 0.4488 0.4488 -0.7727
vn 0.4916 0.8623 -0.1216
vn 0.1216 0.8623 -0.4916
vn 0.8623 0.4916 -0.1216
vn 0.8623 0.1216 -0.4916
vn 0.7727 0.4488 -0.4488
vn 0.4916 0.1216 0.8623
vn 0.1216 0.4916 0.8623
vn 0.8623 0.1216 0.4916
vn 0.4488 0.4488 0.7727
vn 0.8623 0.4916 0.1216
vn 0.4916 0.8623 0.1216
vn 0.7727 0.4488 0.4488
vn 0.1216 0.8623 0.4915
vn 0.1280 0.9835 0.1280
vn 0.4488 0.7727 0.4488
vn -0.4916 0.1216 -0.8623
vn -0.1216 0.4915 -0.8623
vn -0.1280 0.1279 -0.9835
vn -0.7727 0.4488 -0.4488
vn -0.4488 0.4488 -0.7727
vn -0.8623 0.4916 -0.1216
vn -0.8623 0.1216 -0.4916
vn -0.4488 0.7727 -0.4488
vn -0.1216 0.8623 -0.4915
vn -0.4916 0.8623 -0.1216
vn -0.1216 0.4916 0.8623
vn -0.4916 0.1216 0.8623
vn -0.1279 0.1280 0.9835
vn -0.1216 0.8623 0.4916
vn -0.4489 0.4488 0.7727
vn -0.4916 0.8623 0.1216
vn -0.7727 0.4488 0.4488
vn -0.4488 0.7727 0.4488
vn -0.8623 0.1216 0.4916
vn -0.8623 0.4916 0.1216
vn -0.9835 0.1280 0.1280
s 1
f 62/1/1 2/2/2 51/3/3
f 86/4/4 50/5/5 75/6/6
f 61/7/7 37/8/8 14/9/9
f 15/10/10 26/11/11 3/12/12
f 38/13/13 74/14/14 27/15/15
f 4/16/16 5/17/17 1/18/18
f 8/19/19 6/20/20 4/16/16
f 7/21/21 8/22/19 2/2/2
f 11/23/22 9/24/23 7/21/21
f 10/25/24 11/26/22 3/12/12
f 10/25/24 6/27/20 12/28/25
f 6/20/20 9/29/23 12/30/25
f 16/31/26 17/32/27 13/33/28
f 20/34/29 18/35/30 16/31/26
f 19/36/31 20/37/29 14/9/9
f 19/36/31 24/38/32 21/39/33
f 22/40/34 23/41/35 15/10/10
f 17/42/27 24/43/32 22/40/34
f 18/35/30 21/44/33 24/45/32
f 28/46/36 29/47/37 25/48/38
f 32/49/39 30/50/40 28/46/36
f 31/51/41 32/52/39 26/11/11
f 31/51/41 36/53/42 33/54/43
f 34/55/44 35/56/45 27/15/15
f 34/55/44 30/50/40 36/53/42
f 30/50/40 33/57/43 36/58/42
f 40/59/46 41/60/47 37/8/8
f 40/59/46 45/61/48 42/62/49
f 43/63/50 44/64/51 38/13/13
f 43/63/50 48/65/52 45/61/48
f 46/66/53 47/67/54 39/68/55
f 41/69/47 48/65/52 46/66/53
f 42/62/49 45/70/48 48/71/52
f 52/72/56 53/73/57 49/74/58
f 52/72/56 57/75/59 54/76/60
f 55/77/61 56/78/62 50/5/5
f 59/79/63 57/80/59 55/77/61
f 58/81/64 59/82/63 51/3/3
f 58/81/64 54/83/60 60/84/65
f 54/76/60 57/75/59 60/85/65
f 64/86/66 65/87/67 61/7/7
f 68/88/68 66/89/69 64/86/66
f 67/90/70 68/91/68 62/1/1
f 71/92/71 69/93/72 67/90/70
f 70/94/73 71/95/71 63/96/74
f 70/94/73 66/97/69 72/98/75
f 66/89/69 69/99/72 72/100/75
f 76/101/76 77/102/77 73/103/78
f 76/101/76 81/104/79 78/105/80
f 79/106/81 80/107/82 74/14/14
f 79/106/81 84/108/83 81/104/79
f 82/109/84 83/110/85 75/6/6
f 77/111/77 84/108/83 82/109/84
f 78/105/80 81/112/79 84/113/83
f 88/114/86 89/115/87 85/116/88
f 92/117/89 90/118/90 88/114/86
f 91/119/91 92/120/89 86/4/4
f 91/119/91 96/121/92 93/122/93
f 94/123/94 95/124/95 87/125/96
f 89/115/87 96/121/92 94/123/94
f 90/118/90 93/126/93 96/127/92
f 1/18/18 28/46/36 25/48/38
f 5/17/17 32/49/39 28/46/36
f 10/25/24 26/11/11 32/52/39
f 13/33/28 7/21/21 2/2/2
f 17/32/27 11/23/22 7/21/21
f 22/40/34 3/12/12 11/26/22
f 37/8/8 19/36/31 14/9/9
f 41/60/47 23/128/35 19/36/31
f 46/66/53 15/10/10 23/41/35
f 38/13/13 35/56/45 43/63/50
f 35/56/45 47/67/54 43/63/50
f 31/51/41 39/68/55 47/67/54
f 25/48/38 76/101/76 73/103/78
f 29/47/37 80/107/82 76/101/76
f 34/55/44 74/14/14 80/107/82
f 85/116/88 40/59/46 37/8/8
f 89/115/87 44/64/51 40/59/46
f 94/123/94 38/13/13 44/64/51
f 75/6/6 91/119/91 86/4/4
f 83/110/85 95/124/95 91/119/91
f 95/124/95 74/14/14 87/125/96
f 73/103/78 52/72/56 49/74/58
f 77/102/77 56/129/62 52/72/56
f 82/109/84 50/5/5 56/78/62
f 61/7/7 88/114/86 85/116/88
f 65/87/67 92/117/89 88/114/86
f 70/94/73 86/4/4 92/120/89
f 51/3/3 67/90/70 62/1/1
f 59/82/63 71/92/71 67/90/70
f 55/77/61 63/96/74 71/95/71
f 49/74/58 4/16/16 1/18/18
f 53/73/57 8/19/19 4/16/16
f 58/81/64 2/2/2 8/22/19
f 14/9/9 64/86/66 61/7/7
f 20/37/29 68/88/68 64/86/66
f 16/31/26 62/1/1 68/91/68
f 73/103/78 1/18/18 25/48/38
f 62/1/1 13/33/28 2/2/2
f 86/4/4 63/96/74 50/5/5
f 61/7/7 85/116/88 37/8/8
f 15/10/10 39/68/55 26/11/11
f 38/13/13 87/125/96 74/14/14
f 4/16/16 6/20/20 5/17/17
f 8/19/19 9/29/23 6/20/20
f 7/21/21 9/24/23 8/22/19
f 11/23/22 12/130/25 9/24/23
f 10/25/24 12/28/25 11/26/22
f 10/25/24 5/131/17 6/27/20
f 16/31/26 18/35/30 17/32/27
f 20/34/29 21/44/33 18/35/30
f 19/36/31 21/39/33 20/37/29
f 19/36/31 23/128/35 24/38/32
f 22/40/34 24/43/32 23/41/35
f 17/42/27 18/132/30 24/43/32
f 28/46/36 30/50/40 29/47/37
f 32/49/39 33/57/43 30/50/40
f 31/51/41 33/54/43 32/52/39
f 31/51/41 35/56/45 36/53/42
f 34/55/44 36/53/42 35/56/45
f 34/55/44 29/47/37 30/50/40
f 40/59/46 42/62/49 41/60/47
f 40/59/46 44/64/51 45/61/48
f 43/63/50 45/61/48 44/64/51
f 43/63/50 47/67/54 48/65/52
f 46/66/53 48/65/52 47/67/54
f 41/69/47 42/133/49 48/65/52
f 52/72/56 54/76/60 53/73/57
f 52/72/56 56/129/62 57/75/59
f 55/77/61 57/80/59 56/78/62
f 59/79/63 60/134/65 57/80/59
f 58/81/64 60/84/65 59/82/63
f 58/81/64 53/135/57 54/83/60
f 64/86/66 66/89/69 65/87/67
f 68/88/68 69/99/72 66/89/69
f 67/90/70 69/93/72 68/91/68
f 71/92/71 72/136/75 69/93/72
f 70/94/73 72/98/75 71/95/71
f 70/94/73 65/137/67 66/97/69
f 76/101/76 78/105/80 77/102/77
f 76/101/76 80/107/82 81/104/79
f 79/106/81 81/104/79 80/107/82
f 79/106/81 83/110/85 84/108/83
f 82/109/84 84/108/83 83/110/85
f 77/111/77 78/138/80 84/108/83
f 88/114/86 90/118/90 89/115/87
f 92/117/89 93/126/93 90/118/90
f 91/119/91 93/122/93 92/120/89
f 91/119/91 95/124/95 96/121/92
f 94/123/94 96/121/92 95/124/95
f 89/115/87 90/118/90 96/121/92
f 1/18/18 5/17/17 28/46/36
f 5/17/17 10/139/24 32/49/39
f 10/25/24 3/12/12 26/11/11
f 13/33/28 17/32/27 7/21/21
f 17/32/27 22/140/34 11/23/22
f 22/40/34 15/10/10 3/12/12
f 37/8/8 41/60/47 19/36/31
f 41/60/47 46/141/53 23/128/35
f 46/66/53 39/68/55 15/10/10
f 38/13/13 27/15/15 35/56/45
f 35/56/45 31/51/41 47/67/54
f 31/51/41 26/11/11 39/68/55
f 25/48/38 29/47/37 76/101/76
f 29/47/37 34/55/44 80/107/82
f 34/55/44 27/15/15 74/14/14
f 85/116/88 89/115/87 40/59/46
f 89/115/87 94/123/94 44/64/51
f 94/123/94 87/125/96 38/13/13
f 75/6/6 83/110/85 91/119/91
f 83/110/85 79/106/81 95/124/95
f 95/124/95 79/106/81 74/14/14
f 73/103/78 77/102/77 52/72/56
f 77/102/77 82/142/84 56/129/62
f 82/109/84 75/6/6 50/5/5
f 61/7/7 65/87/67 88/114/86
f 65/87/67 70/143/73 92/117/89
f 70/94/73 63/96/74 86/4/4
f 51/3/3 59/82/63 67/90/70
f 59/82/63 55/144/61 71/92/71
f 55/77/61 50/5/5 63/96/74
f 49/74/58 53/73/57 4/16/16
f 53/73/57 58/145/64 8/19/19
f 58/81/64 51/3/3 2/2/2
f 14/9/9 20/37/29 64/86/66
f 20/37/29 16/146/26 68/88/68
f 16/31/26 13/33/28 62/1/1
f 73/103/78 49/74/58 1/18/18
