# Blender 4.2.1 LTS
# www.blender.org
mtllib banner-of-courage.mtl
o standee
v 0.400000 0.040015 0.500000
v 0.400000 0.000015 0.500000
v 0.400000 0.040015 -0.500000
v 0.400000 0.000015 -0.500000
v -0.400000 0.040015 -0.500000
v -0.400000 0.000015 0.500000
v -0.400000 0.000015 -0.500000
v -0.400000 0.040015 0.500000
v 0.400000 0.342965 0.080000
v 0.400000 0.037315 0.080000
v 0.400000 0.342965 -0.080000
v 0.400000 0.037315 -0.080000
v -0.400000 0.342965 -0.080000
v -0.400000 0.037315 0.080000
v -0.400000 0.037315 -0.080000
v -0.400000 0.342965 0.080000
v -0.400000 0.342965 0.080000
v -0.400000 0.342965 0.080000
v -0.400000 0.037315 0.080000
v -0.400000 0.037315 0.080000
v -0.400000 0.037315 -0.080000
v -0.400000 0.037315 -0.080000
v -0.400000 0.342965 -0.080000
v -0.400000 0.342965 -0.080000
v 0.400000 0.037315 -0.080000
v 0.400000 0.037315 -0.080000
v 0.400000 0.342965 -0.080000
v 0.400000 0.342965 -0.080000
v 0.400000 0.037315 0.080000
v 0.400000 0.037315 0.080000
v 0.400000 0.342965 0.080000
v 0.400000 0.342965 0.080000
v 0.400000 0.040015 -0.500000
v 0.400000 0.040015 -0.500000
v 0.400000 0.040015 0.500000
v 0.400000 0.040015 0.500000
v -0.400000 0.040015 0.500000
v -0.400000 0.040015 0.500000
v -0.400000 0.000015 0.500000
v -0.400000 0.000015 0.500000
v -0.400000 0.000015 -0.500000
v -0.400000 0.000015 -0.500000
v -0.400000 0.040015 -0.500000
v -0.400000 0.040015 -0.500000
v 0.400000 0.000015 -0.500000
v 0.400000 0.000015 -0.500000
v 0.400000 0.000015 0.500000
v 0.400000 0.000015 0.500000
vn -0.0000 -0.0000 -1.0000
vn -0.0000 1.0000 -0.0000
vn -0.0000 -1.0000 -0.0000
vn -0.0000 -0.0000 1.0000
vn 1.0000 -0.0000 -0.0000
vn -1.0000 -0.0000 -0.0000
vt 0.954403 0.030332
vt 0.962504 0.051535
vt 0.954403 0.051535
vt 0.992949 0.025031
vt 0.988708 0.046234
vt 0.988708 0.025031
vt 0.992949 0.003828
vt 0.988708 0.003828
vt 0.946302 0.030332
vt 0.946302 0.051535
vt 0.992949 0.030332
vt 0.994009 0.003828
vt 0.994009 0.030332
vt 0.972045 0.030332
vt 0.973105 0.051535
vt 0.972045 0.051535
vt 0.970985 0.030332
vt 0.966744 0.038433
vt 0.966744 0.030332
vt 0.970985 0.051535
vt 0.966744 0.038433
vt 0.962504 0.030332
vt 0.966744 0.030332
vt 0.946302 0.003828
vt 0.967505 0.030332
vt 0.946302 0.030332
vt 0.995070 0.030332
vt 0.995070 0.003828
vt 0.967505 0.003828
vt 0.988708 0.030332
vt 0.967505 0.030332
vt 0.992949 0.046234
vt 0.992949 0.003828
vt 0.973105 0.030332
vt 0.970985 0.038433
vt 0.962504 0.038433
s 1
usemtl Bannerspear-Summons
f 21/1/1 27/2/1 25/3/1
f 28/4/2 18/5/2 32/6/2
f 22/7/3 30/6/3 20/8/3
f 29/9/4 17/3/4 19/10/4
f 47/11/5 33/12/5 35/13/5
f 41/14/1 34/15/1 46/16/1
f 12/17/5 9/18/5 10/19/5
f 48/17/4 37/16/4 39/20/4
f 15/21/6 16/22/6 13/23/6
f 42/24/3 2/25/3 40/26/3
f 6/27/6 44/12/6 7/28/6
f 3/29/2 8/30/2 1/31/2
f 21/1/1 23/22/1 27/2/1
f 28/4/2 24/32/2 18/5/2
f 22/7/3 26/4/3 30/6/3
f 29/9/4 31/1/4 17/3/4
f 47/11/5 45/33/5 33/12/5
f 41/14/1 43/34/1 34/15/1
f 12/17/5 11/35/5 9/18/5
f 48/17/4 36/14/4 37/16/4
f 15/21/6 14/36/6 16/22/6
f 42/24/3 4/29/3 2/25/3
f 6/27/6 38/13/6 44/12/6
f 3/29/2 5/8/2 8/30/2
o fh-summon-banner-of-courage
v -0.275446 0.156395 0.050000
v -0.275446 0.156395 -0.050000
v -0.464876 0.670383 -0.050000
v -0.464876 0.670383 0.050000
v -0.324538 0.169770 0.050000
v -0.324538 0.169770 -0.050000
v -0.367654 0.194956 0.050000
v -0.367654 0.194956 -0.050000
v -0.401378 0.228681 0.050000
v -0.401378 0.228681 -0.050000
v -0.424857 0.273504 0.050000
v -0.424857 0.273504 -0.050000
v -0.436383 0.338391 0.050000
v -0.436383 0.338391 -0.050000
v -0.447909 0.448101 0.050000
v -0.447909 0.448101 -0.050000
v -0.455593 0.549700 0.050000
v -0.455593 0.549700 -0.050000
v 0.042026 1.555658 -0.050000
v 0.042026 1.555658 0.050000
v -0.464876 0.851147 -0.050000
v -0.464876 0.851147 0.050000
v -0.454896 0.947043 0.050000
v -0.454896 0.947043 -0.050000
v -0.441618 1.041464 0.050000
v -0.441618 1.041464 -0.050000
v -0.424652 1.125557 0.050000
v -0.424652 1.125557 -0.050000
v -0.403260 1.203012 0.050000
v -0.403260 1.203012 -0.050000
v -0.372278 1.275303 0.050000
v -0.372278 1.275303 -0.050000
v -0.332870 1.338165 0.050000
v -0.332870 1.338165 -0.050000
v -0.283066 1.396506 0.050000
v -0.283066 1.396506 -0.050000
v -0.224725 1.448800 0.050000
v -0.224725 1.448800 -0.050000
v -0.158913 1.491488 0.050000
v -0.158913 1.491488 -0.050000
v -0.087409 1.523505 0.050000
v -0.087409 1.523505 -0.050000
v -0.015194 1.542715 0.050000
v -0.015194 1.542715 -0.050000
v 0.142043 1.555658 -0.050000
v 0.142043 1.555658 0.050000
v 0.514608 1.003632 -0.050000
v 0.514608 1.003632 0.050000
v 0.202874 1.542715 0.050000
v 0.202874 1.542715 -0.050000
v 0.255168 1.528842 0.050000
v 0.255168 1.528842 -0.050000
v 0.301414 1.506074 0.050000
v 0.301414 1.506074 -0.050000
v 0.346593 1.474058 0.050000
v 0.346593 1.474058 -0.050000
v 0.390349 1.429235 0.050000
v 0.390349 1.429235 -0.050000
v 0.422721 1.381210 0.050000
v 0.422721 1.381210 -0.050000
v 0.452959 1.318955 0.050000
v 0.452959 1.318955 -0.050000
v 0.478217 1.242116 0.050000
v 0.478217 1.242116 -0.050000
v 0.497782 1.159584 0.050000
v 0.497782 1.159584 -0.050000
v 0.505964 1.097330 0.050000
v 0.505964 1.097330 -0.050000
v 0.287410 0.156395 -0.050000
v 0.287410 0.156395 0.050000
v 0.514608 0.875063 -0.050000
v 0.514608 0.875063 0.050000
v 0.507034 0.783880 0.050000
v 0.507034 0.783880 -0.050000
v 0.498838 0.702942 0.050000
v 0.498838 0.702942 -0.050000
v 0.489105 0.616369 0.050000
v 0.489105 0.616369 -0.050000
v 0.475274 0.526723 0.050000
v 0.475274 0.526723 -0.050000
v 0.455808 0.408390 0.050000
v 0.455808 0.408390 -0.050000
v 0.435317 0.294154 0.050000
v 0.435317 0.294154 -0.050000
v 0.421702 0.251653 0.050000
v 0.421702 0.251653 -0.050000
v 0.398282 0.217561 0.050000
v 0.398282 0.217561 -0.050000
v 0.368934 0.189992 0.050000
v 0.368934 0.189992 -0.050000
v 0.336621 0.171908 0.050000
v 0.336621 0.171908 -0.050000
v -0.464876 0.851147 -0.050000
v -0.464876 0.670383 -0.050000
v -0.464876 0.851147 0.050000
v -0.464876 0.670383 0.050000
v -0.275446 0.156395 0.050000
v -0.324538 0.169770 0.050000
v -0.275446 0.156395 -0.050000
v -0.324538 0.169770 -0.050000
v -0.367654 0.194956 0.050000
v -0.367654 0.194956 -0.050000
v -0.401378 0.228681 0.050000
v -0.401378 0.228681 -0.050000
v -0.424857 0.273504 0.050000
v -0.424857 0.273504 -0.050000
v -0.436383 0.338391 0.050000
v -0.436383 0.338391 -0.050000
v -0.447909 0.448101 0.050000
v -0.447909 0.448101 -0.050000
v -0.455593 0.549700 0.050000
v -0.455593 0.549700 -0.050000
v 0.142043 1.555658 -0.050000
v 0.042026 1.555658 -0.050000
v 0.142043 1.555658 0.050000
v 0.042026 1.555658 0.050000
v -0.454896 0.947043 0.050000
v -0.454896 0.947043 -0.050000
v -0.441618 1.041464 0.050000
v -0.441618 1.041464 -0.050000
v -0.424652 1.125557 0.050000
v -0.424652 1.125557 -0.050000
v -0.403260 1.203012 0.050000
v -0.403260 1.203012 -0.050000
v -0.372278 1.275303 0.050000
v -0.372278 1.275303 -0.050000
v -0.332870 1.338165 0.050000
v -0.332870 1.338165 -0.050000
v -0.283066 1.396506 0.050000
v -0.283066 1.396506 -0.050000
v -0.224725 1.448800 0.050000
v -0.224725 1.448800 -0.050000
v -0.158913 1.491488 0.050000
v -0.158913 1.491488 -0.050000
v -0.087409 1.523505 0.050000
v -0.087409 1.523505 -0.050000
v -0.015194 1.542715 0.050000
v -0.015194 1.542715 -0.050000
v 0.514608 0.875063 -0.050000
v 0.514608 1.003632 -0.050000
v 0.514608 0.875063 0.050000
v 0.514608 1.003632 0.050000
v 0.202874 1.542715 0.050000
v 0.202874 1.542715 -0.050000
v 0.255168 1.528842 0.050000
v 0.255168 1.528842 -0.050000
v 0.301414 1.506074 0.050000
v 0.301414 1.506074 -0.050000
v 0.346593 1.474058 0.050000
v 0.346593 1.474058 -0.050000
v 0.390349 1.429235 0.050000
v 0.390349 1.429235 -0.050000
v 0.422721 1.381210 0.050000
v 0.422721 1.381210 -0.050000
v 0.452959 1.318955 0.050000
v 0.452959 1.318955 -0.050000
v 0.478217 1.242116 0.050000
v 0.478217 1.242116 -0.050000
v 0.497782 1.159584 0.050000
v 0.497782 1.159584 -0.050000
v 0.505964 1.097330 0.050000
v 0.505964 1.097330 -0.050000
v 0.287410 0.156395 -0.050000
v 0.287410 0.156395 0.050000
v 0.507034 0.783880 0.050000
v 0.507034 0.783880 -0.050000
v 0.498838 0.702942 0.050000
v 0.498838 0.702942 -0.050000
v 0.489105 0.616369 0.050000
v 0.489105 0.616369 -0.050000
v 0.475274 0.526723 0.050000
v 0.475274 0.526723 -0.050000
v 0.455808 0.408390 0.050000
v 0.455808 0.408390 -0.050000
v 0.435317 0.294154 0.050000
v 0.435317 0.294154 -0.050000
v 0.421702 0.251653 0.050000
v 0.421702 0.251653 -0.050000
v 0.398282 0.217561 0.050000
v 0.398282 0.217561 -0.050000
v 0.368934 0.189992 0.050000
v 0.368934 0.189992 -0.050000
v 0.336621 0.171908 0.050000
v 0.336621 0.171908 -0.050000
vn -0.0000 -0.0000 1.0000
vn -0.0000 -0.0000 -1.0000
vn -0.9987 0.0518 -0.0000
vn -0.9993 -0.0384 -0.0000
vn -0.1326 -0.9912 -0.0000
vn -0.3870 -0.9221 -0.0000
vn -0.6108 -0.7918 -0.0000
vn -0.8057 -0.5923 -0.0000
vn -0.9463 -0.3232 -0.0000
vn -0.9902 -0.1398 -0.0000
vn -0.9959 -0.0900 -0.0000
vn -0.9971 -0.0761 -0.0000
vn 0.1046 0.9945 -0.0000
vn -0.1110 0.9938 -0.0000
vn -0.9926 0.1214 -0.0000
vn -0.9857 0.1686 -0.0000
vn -0.9727 0.2321 -0.0000
vn -0.9437 0.3308 -0.0000
vn -0.8859 0.4639 -0.0000
vn -0.8061 0.5918 -0.0000
vn -0.7156 0.6985 -0.0000
vn -0.6077 0.7942 -0.0000
vn -0.4779 0.8784 -0.0000
vn -0.3340 0.9426 -0.0000
vn -0.3339 0.9426 -0.0000
vn -0.2389 0.9710 -0.0000
vn 0.9991 -0.0414 -0.0000
vn 0.9989 0.0460 -0.0000
vn 0.2323 0.9726 -0.0000
vn 0.3508 0.9365 -0.0000
vn 0.5116 0.8592 -0.0000
vn 0.5116 0.8593 -0.0000
vn 0.6495 0.7603 -0.0000
vn 0.7755 0.6313 -0.0000
vn 0.8665 0.4992 -0.0000
vn 0.9268 0.3754 -0.0000
vn 0.9624 0.2717 -0.0000
vn 0.9835 0.1807 -0.0000
vn 0.9938 0.1111 -0.0000
vn 0.1521 -0.9884 -0.0000
vn 0.9958 -0.0918 -0.0000
vn 0.9943 -0.1062 -0.0000
vn 0.9912 -0.1321 -0.0000
vn 0.9875 -0.1574 -0.0000
vn 0.9855 -0.1694 -0.0000
vn 0.9704 -0.2413 -0.0000
vn 0.8978 -0.4403 -0.0000
vn 0.7588 -0.6513 -0.0000
vn 0.5909 -0.8067 -0.0000
vn 0.3966 -0.9180 -0.0000
vt 0.005808 0.789041
vt 0.005808 0.829418
vt 0.037155 0.677221
vt 0.048120 0.674233
vt 0.027524 0.682846
vt 0.019991 0.690379
vt 0.014747 0.700391
vt 0.012172 0.714885
vt 0.009598 0.739391
vt 0.007881 0.762085
vt 0.119033 0.986783
vt 0.141374 0.986783
vt 0.008037 0.850838
vt 0.011003 0.871929
vt 0.014792 0.890713
vt 0.019571 0.908013
vt 0.026491 0.924161
vt 0.035294 0.938202
vt 0.046418 0.951234
vt 0.059450 0.962915
vt 0.074150 0.972450
vt 0.090122 0.979601
vt 0.106252 0.983892
vt 0.224593 0.863478
vt 0.224593 0.834760
vt 0.154961 0.983892
vt 0.166642 0.980793
vt 0.176972 0.975708
vt 0.187064 0.968556
vt 0.196837 0.958544
vt 0.204068 0.947817
vt 0.210822 0.933912
vt 0.216464 0.916748
vt 0.220834 0.898313
vt 0.222662 0.884408
vt 0.173844 0.674233
vt 0.222901 0.814393
vt 0.221070 0.796314
vt 0.218896 0.776977
vt 0.215807 0.756952
vt 0.211459 0.730521
vt 0.206882 0.705004
vt 0.203840 0.695511
vt 0.198609 0.687896
vt 0.192054 0.681738
vt 0.184836 0.677698
s 1
usemtl Bannerspear-Summons
f 142/37/10 143/38/9 141/38/9
f 146/39/12 147/40/11 145/40/11
f 149/41/13 148/39/12 146/39/12
f 151/42/14 150/41/13 149/41/13
f 153/43/15 152/42/14 151/42/14
f 155/44/16 154/43/15 153/43/15
f 157/45/17 156/44/16 155/44/16
f 159/46/18 158/45/17 157/45/17
f 144/37/10 160/46/18 159/46/18
f 162/47/20 163/48/19 161/48/19
f 165/49/21 141/38/9 143/38/9
f 167/50/22 166/49/21 165/49/21
f 169/51/23 168/50/22 167/50/22
f 171/52/24 170/51/23 169/51/23
f 173/53/25 172/52/24 171/52/24
f 175/54/26 174/53/25 173/53/25
f 177/55/27 176/54/26 175/54/26
f 179/56/28 178/55/27 177/55/27
f 181/57/29 180/56/28 179/56/28
f 183/58/30 182/57/29 181/57/29
f 185/59/32 184/58/31 183/58/30
f 164/47/20 186/59/32 185/59/32
f 188/60/34 189/61/33 187/61/33
f 191/62/35 161/48/19 163/48/19
f 193/63/36 192/62/35 191/62/35
f 195/64/37 194/63/36 193/63/36
f 197/65/39 196/64/38 195/64/37
f 199/66/40 198/65/39 197/65/39
f 201/67/41 200/66/40 199/66/40
f 203/68/42 202/67/41 201/67/41
f 205/69/43 204/68/42 203/68/42
f 207/70/44 206/69/43 205/69/43
f 209/71/45 208/70/44 207/70/44
f 190/60/34 210/71/45 209/71/45
f 211/72/46 145/40/11 147/40/11
f 213/73/47 187/61/33 189/61/33
f 215/74/48 214/73/47 213/73/47
f 217/75/49 216/74/48 215/74/48
f 219/76/50 218/75/49 217/75/49
f 221/77/51 220/76/50 219/76/50
f 223/78/52 222/77/51 221/77/51
f 225/79/53 224/78/52 223/78/52
f 227/80/54 226/79/53 225/79/53
f 229/81/55 228/80/54 227/80/54
f 231/82/56 230/81/55 229/81/55
f 212/72/46 232/82/56 231/82/56
f 139/82/7 135/80/7 131/78/7
f 92/59/8 98/62/8 110/68/8
f 142/37/10 144/37/10 143/38/9
f 146/39/12 148/39/12 147/40/11
f 149/41/13 150/41/13 148/39/12
f 151/42/14 152/42/14 150/41/13
f 153/43/15 154/43/15 152/42/14
f 155/44/16 156/44/16 154/43/15
f 157/45/17 158/45/17 156/44/16
f 159/46/18 160/46/18 158/45/17
f 144/37/10 142/37/10 160/46/18
f 162/47/20 164/47/20 163/48/19
f 165/49/21 166/49/21 141/38/9
f 167/50/22 168/50/22 166/49/21
f 169/51/23 170/51/23 168/50/22
f 171/52/24 172/52/24 170/51/23
f 173/53/25 174/53/25 172/52/24
f 175/54/26 176/54/26 174/53/25
f 177/55/27 178/55/27 176/54/26
f 179/56/28 180/56/28 178/55/27
f 181/57/29 182/57/29 180/56/28
f 183/58/30 184/58/31 182/57/29
f 185/59/32 186/59/32 184/58/31
f 164/47/20 162/47/20 186/59/32
f 188/60/34 190/60/34 189/61/33
f 191/62/35 192/62/35 161/48/19
f 193/63/36 194/63/36 192/62/35
f 195/64/37 196/64/38 194/63/36
f 197/65/39 198/65/39 196/64/38
f 199/66/40 200/66/40 198/65/39
f 201/67/41 202/67/41 200/66/40
f 203/68/42 204/68/42 202/67/41
f 205/69/43 206/69/43 204/68/42
f 207/70/44 208/70/44 206/69/43
f 209/71/45 210/71/45 208/70/44
f 190/60/34 188/60/34 210/71/45
f 211/72/46 212/72/46 145/40/11
f 213/73/47 214/73/47 187/61/33
f 215/74/48 216/74/48 214/73/47
f 217/75/49 218/75/49 216/74/48
f 219/76/50 220/76/50 218/75/49
f 221/77/51 222/77/51 220/76/50
f 223/78/52 224/78/52 222/77/51
f 225/79/53 226/79/53 224/78/52
f 227/80/54 228/80/54 226/79/53
f 229/81/55 230/81/55 228/80/54
f 231/82/56 232/82/56 230/81/55
f 212/72/46 211/72/46 232/82/56
f 71/49/7 70/38/7 121/73/7
f 70/38/7 52/37/7 123/74/7
f 65/46/7 63/45/7 129/77/7
f 63/45/7 61/44/7 49/40/7
f 49/40/7 61/44/7 53/39/7
f 70/38/7 123/74/7 121/73/7
f 52/37/7 65/46/7 125/75/7
f 123/74/7 52/37/7 125/75/7
f 75/51/7 73/50/7 96/60/7
f 73/50/7 71/49/7 120/61/7
f 75/51/7 96/60/7 115/71/7
f 79/53/7 77/52/7 115/71/7
f 77/52/7 75/51/7 115/71/7
f 83/55/7 81/54/7 115/71/7
f 81/54/7 79/53/7 115/71/7
f 87/57/7 85/56/7 113/70/7
f 85/56/7 83/55/7 113/70/7
f 113/70/7 83/55/7 115/71/7
f 91/59/7 89/58/7 111/69/7
f 89/58/7 87/57/7 111/69/7
f 111/69/7 87/57/7 113/70/7
f 94/48/7 68/47/7 91/59/7
f 99/63/7 97/62/7 101/64/7
f 97/62/7 94/48/7 91/59/7
f 107/67/7 97/62/7 109/68/7
f 103/65/7 101/64/7 97/62/7
f 107/67/7 105/66/7 97/62/7
f 105/66/7 103/65/7 97/62/7
f 111/69/7 109/68/7 91/59/7
f 91/59/7 109/68/7 97/62/7
f 120/61/7 96/60/7 73/50/7
f 121/73/7 120/61/7 71/49/7
f 127/76/7 125/75/7 65/46/7
f 131/78/7 129/77/7 118/72/7
f 129/77/7 127/76/7 65/46/7
f 135/80/7 133/79/7 131/78/7
f 139/82/7 137/81/7 135/80/7
f 49/40/7 118/72/7 63/45/7
f 118/72/7 139/82/7 131/78/7
f 55/41/7 53/39/7 59/43/7
f 59/43/7 57/42/7 55/41/7
f 61/44/7 59/43/7 53/39/7
f 129/77/7 63/45/7 118/72/7
f 51/37/8 69/38/8 124/74/8
f 69/38/8 72/49/8 122/73/8
f 51/37/8 126/75/8 66/46/8
f 72/49/8 74/50/8 119/61/8
f 74/50/8 76/51/8 95/60/8
f 95/60/8 76/51/8 116/71/8
f 76/51/8 78/52/8 116/71/8
f 78/52/8 80/53/8 116/71/8
f 116/71/8 80/53/8 82/54/8
f 82/54/8 84/55/8 116/71/8
f 116/71/8 84/55/8 114/70/8
f 84/55/8 86/56/8 114/70/8
f 86/56/8 88/57/8 114/70/8
f 114/70/8 88/57/8 112/69/8
f 88/57/8 90/58/8 112/69/8
f 90/58/8 92/59/8 112/69/8
f 92/59/8 67/47/8 93/48/8
f 93/48/8 98/62/8 92/59/8
f 98/62/8 100/63/8 102/64/8
f 104/65/8 98/62/8 102/64/8
f 104/65/8 106/66/8 98/62/8
f 106/66/8 108/67/8 98/62/8
f 108/67/8 110/68/8 98/62/8
f 110/68/8 112/69/8 92/59/8
f 95/60/8 119/61/8 74/50/8
f 119/61/8 122/73/8 72/49/8
f 122/73/8 124/74/8 69/38/8
f 124/74/8 126/75/8 51/37/8
f 126/75/8 128/76/8 66/46/8
f 128/76/8 130/77/8 66/46/8
f 130/77/8 132/78/8 117/72/8
f 117/72/8 132/78/8 140/82/8
f 132/78/8 134/79/8 136/80/8
f 136/80/8 138/81/8 140/82/8
f 117/72/8 50/40/8 64/45/8
f 117/72/8 64/45/8 130/77/8
f 50/40/8 54/39/8 62/44/8
f 54/39/8 56/41/8 60/43/8
f 56/41/8 58/42/8 60/43/8
f 60/43/8 62/44/8 54/39/8
f 62/44/8 64/45/8 50/40/8
f 64/45/8 66/46/8 130/77/8
f 136/80/8 140/82/8 132/78/8
